<svg xmlns="http://www.w3.org/2000/svg" viewBox="0 0 512 512">
  <rect width="512" height="512" rx="100" fill="#2d5a3d"/>
  <g transform="translate(96, 96) scale(1.25)">
    <path fill="white" d="M128 32C145.7 32 160 46.33 160 64V80H176C193.7 80 208 94.33 208 112V144C208 152.8 200.8 160 192 160H160V176C160 184.8 152.8 192 144 192H112C103.2 192 96 184.8 96 176V160H64C55.16 160 48 152.8 48 144V112C48 103.2 55.16 96 64 96H96V64C96 46.33 110.3 32 128 32zM128 64V128H64V96H128V64zM160 128V96H192V112H160V128z"/>
    <path fill="white" d="M176 208C193.7 208 208 222.3 208 240V288C208 305.7 193.7 320 176 320H144C135.2 320 128 312.8 128 304V288H96C78.33 288 64 273.7 64 256V240C64 222.3 78.33 208 96 208H176zM96 256H144V240H96V256zM176 240H160V256H176V240z"/>
  </g>
  <path fill="white" d="M256 140C315.6 140 372.4 160.6 416 196V316C416 404.4 343.6 476 256 476C168.4 476 96 404.4 96 316V196C139.6 160.6 196.4 140 256 140zM256 180C210.6 180 168.2 194.4 134 218V316C134 383.4 189.4 438 256 438C322.6 438 378 383.4 378 316V218C343.8 194.4 301.4 180 256 180z" opacity="0.3"/>
  <ellipse cx="256" cy="290" rx="90" ry="70" fill="white" opacity="0.2"/>
  <path fill="white" d="M256 200C220 200 190 220 190 250C190 280 220 300 256 300C292 300 322 280 322 250C322 220 292 200 256 200zM256 230C275 230 290 238 290 250C290 262 275 270 256 270C237 270 222 262 222 250C222 238 237 230 256 230z"/>
</svg>
