<svg xmlns="http://www.w3.org/2000/svg" viewBox="0 0 512 512">
  <rect width="512" height="512" rx="100" fill="#2d5a3d"/>
  <g transform="translate(106, 106)">
    <path fill="white" d="M150 0C232.8 0 300 67.2 300 150C300 220 248 278 180 294V270C180 253.4 166.6 240 150 240C133.4 240 120 253.4 120 270V294C52 278 0 220 0 150C0 67.2 67.2 0 150 0ZM150 60C100.3 60 60 100.3 60 150C60 179 73 205 94 222L120 196V150C120 133.4 133.4 120 150 120C166.6 120 180 133.4 180 150V196L206 222C227 205 240 179 240 150C240 100.3 199.7 60 150 60Z"/>
  </g>
</svg>
